<svg id="visual" viewBox="0 0 1200 700" width="1200" height="700" xmlns="http://www.w3.org/2000/svg" xmlns:xlink="http://www.w3.org/1999/xlink" version="1.1"><rect x="0" y="0" width="1200" height="700" fill="#002233"></rect><path d="M0 444L28.5 447.5C57 451 114 458 171.2 456.8C228.3 455.7 285.7 446.3 342.8 455C400 463.7 457 490.3 514.2 512.8C571.3 535.3 628.7 553.7 685.8 565.5C743 577.3 800 582.7 857.2 562.8C914.3 543 971.7 498 1028.8 473.5C1086 449 1143 445 1171.5 443L1200 441L1200 701L1171.5 701C1143 701 1086 701 1028.8 701C971.7 701 914.3 701 857.2 701C800 701 743 701 685.8 701C628.7 701 571.3 701 514.2 701C457 701 400 701 342.8 701C285.7 701 228.3 701 171.2 701C114 701 57 701 28.5 701L0 701Z" fill="#0066FF" stroke-linecap="round" stroke-linejoin="miter"></path></svg>